<?xml version="1.0" encoding="UTF-8" standalone="no"?>
<svg
   t="1651755933703"
   class="icon"
   viewBox="0 0 1920 1920"
   version="1.1"
   p-id="2088"
   width="32"
   height="32"
   id="svg10"
   sodipodi:docname="staridea32.svg"
   inkscape:version="1.1.2 (b8e25be833, 2022-02-05)"
   xmlns:inkscape="http://www.inkscape.org/namespaces/inkscape"
   xmlns:sodipodi="http://sodipodi.sourceforge.net/DTD/sodipodi-0.dtd"
   xmlns="http://www.w3.org/2000/svg"
   xmlns:svg="http://www.w3.org/2000/svg">
  <sodipodi:namedview
     id="namedview12"
     pagecolor="#ffffff"
     bordercolor="#666666"
     borderopacity="1.0"
     inkscape:pageshadow="2"
     inkscape:pageopacity="0.0"
     inkscape:pagecheckerboard="0"
     showgrid="false"
     inkscape:zoom="13.459563"
     inkscape:cx="-0.26003816"
     inkscape:cy="11.330234"
     inkscape:window-width="1920"
     inkscape:window-height="1001"
     inkscape:window-x="1671"
     inkscape:window-y="-9"
     inkscape:window-maximized="1"
     inkscape:current-layer="svg10"
     scale-x="60" />
  <defs
     id="defs4">
    <style
       type="text/css"
       id="style2">@font-face { font-family: feedback-iconfont; src: url(&quot;//at.alicdn.com/t/font_1031158_u69w8yhxdu.woff2?t=1630033759944&quot;) format(&quot;woff2&quot;), url(&quot;//at.alicdn.com/t/font_1031158_u69w8yhxdu.woff?t=1630033759944&quot;) format(&quot;woff&quot;), url(&quot;//at.alicdn.com/t/font_1031158_u69w8yhxdu.ttf?t=1630033759944&quot;) format(&quot;truetype&quot;); }
</style>
  </defs>
  <g
     id="g16"
     transform="matrix(-2.0457857,0,0,-2.0160806,1997.6229,1976.407)">
    <path
       d="m 397.1,87.5 c -13.5,0 -24.5,10.9 -24.5,24.5 0,13.6 10.9,24.5 24.5,24.5 h 220.7 c 13.5,0 24.5,-10.9 24.5,-24.5 0,-13.6 -11.1,-24.5 -24.6,-24.5 z m 24.5,147.1 h -49.1 v 98.2 c 0,0.5 -5.1,7 -14.7,14.3 -4.6,3.3 -9.6,6.7 -14.5,9.6 -2.9,1.6 -5.2,2.9 -6.2,3.5 l -2.9,1.6 C 251.4,418.5 201,512.2 201,614.5 c 0,169.2 137.2,306.3 306.3,306.3 169.1,0 306.3,-137.2 306.3,-306.3 0,-102.3 -50.4,-196 -133.1,-252.8 l -2.9,-1.6 c -1,-0.5 -3.3,-1.7 -6.2,-3.5 -5,-2.9 -10.1,-6.1 -14.5,-9.6 -9.7,-7.3 -14.7,-13.8 -14.7,-14.3 v -45 -13.2 -28 -12 C 642.2,193.9 609.3,161 568.7,161 H 446 c -40.6,0 -73.5,32.9 -73.5,73.5 h 49.1 c 0,-13.5 10.9,-24.5 24.5,-24.5 h 122.4 c 13.5,0 24.5,10.8 24.5,24.4 v 98.2 c 0,21.1 13.2,37.6 34.4,53.4 10.7,7.9 21.1,14 28.4,17.7 l -2.9,-1.6 c 69.5,47.9 112,126.5 112,212.4 0,142 -115.1,257.3 -257.3,257.3 -142,0 -257.3,-115.1 -257.3,-257.3 0,-86 42.5,-164.6 112,-212.3 l -2.9,1.6 c 7.4,-3.7 17.8,-9.7 28.4,-17.7 21.1,-15.8 34.4,-32.3 34.4,-53.4 v -98 h -0.6 z m -0.1,24.5 V 308 h 171.6 v -48.9 z m -252,576.4 c 7.8,11.1 23.1,13.9 34.1,6.1 11.1,-7.6 13.9,-22.9 6.1,-34.1 -41.4,-60 -64,-131 -64,-205.4 0,-67.8 18.8,-133.1 53.6,-189.5 7.1,-11.5 3.6,-26.7 -7.9,-33.8 -11.5,-7.1 -26.7,-3.6 -33.8,7.9 -39.7,64.3 -61,138.3 -61,215.4 0.1,84.6 25.8,165.5 72.9,233.4 z M 860.4,392.6 c -6.9,-11.6 -22.1,-15.4 -33.8,-8.5 -11.6,6.9 -15.4,22.1 -8.5,33.6 33,55.4 50.6,118.5 50.6,184.5 0,73.5 -22.1,143.7 -62.6,203.2 -7.5,11.3 -4.7,26.4 6.6,34.1 11.3,7.5 26.4,4.7 34.1,-6.6 46,-67.6 71.00001,-147.4 71.00001,-231 C 917.90001,527.3 897.8,455.4 860.4,392.6 Z"
       fill=""
       p-id="2089"
       id="path6" />
    <path
       d="m 611.5,460.1 c 13.2,17.5 12.7,51.3 -2.2,106.7 49.8,39.9 69.5,69.5 61.8,93.2 -7.6,23.4 -40,35.6 -101.7,38.3 -20.9,61.3 -42.1,90 -66.2,90 -23.9,0 -45.3,-28.3 -67.1,-88.8 -61.7,-1.7 -94.4,-13.4 -102.3,-36.6 -8.2,-23.5 11.1,-53.5 60.3,-94.2 -15.7,-55.2 -16.8,-89.3 -3.7,-106.8 6.2,-8.3 15.5,-12.7 27.2,-12.7 19.7,0 46.9,12.2 83.4,37.3 36.5,-26 63.9,-38.7 83.7,-38.7 11.4,0 20.7,4.2 26.8,12.3 z m -114,61.1 C 460.1,495 440.6,489.3 431,489.3 c -7.1,0 -10.1,2.9 -11.7,5 -5.8,7.6 -9.3,28.2 6.7,82.4 l 1.3,4.5 -3.7,2.9 c -49.8,40.4 -52.8,59.4 -50.3,67.1 2.5,7.5 16.2,20.4 78.3,21.5 l 5,0.1 1.6,4.6 c 21.3,61.2 37.4,70.2 45,70.2 7.6,0 23.7,-9.2 44.1,-71 l 1.5,-4.7 4.8,-0.1 c 62.1,-2.2 75.5,-15.3 78,-22.8 2.5,-7.8 -0.8,-26.7 -51.2,-66.2 l -3.7,-2.9 1.3,-4.6 c 15.1,-54.3 11.3,-74.7 5.5,-82.4 -1.6,-2.2 -4.6,-5 -11.4,-5 -9.7,0 -29.1,5.8 -66.4,33 l -4,2.9 z"
       fill=""
       p-id="2090"
       id="path8" />
  </g>
</svg>
